<svg xmlns="http://www.w3.org/2000/svg" width="1922.75" height="1080.954" viewBox="0 0 1922.75 1080.954">
  <path id="Path_1" data-name="Path 1" d="M0,3.1s528.089,6.762,1029.375,0c277.931,8.217,562.165,2.274,728.912,0,53.424.655,101-7.3,124,0,9.49,3.011,18.65-2.358,24.722,0,126.049,48.943-588.819-57.914-916.846,278.548C647.035,633.6,898.695,295.443,774.482,370.877c-88.346,53.652-312.767,187.185-220.106,96.071S292.7,398.9,215.679,484.889C115.124,597.144,538.981,754.717,342.852,889.3S0,1079.73,0,1079.73Z" transform="translate(1922.25 1080.456) rotate(-180)" fill="#6c63ff" stroke="#707070" stroke-width="1"/>
</svg>
