<svg height="512" viewBox="0 0 128 128" width="512" xmlns="http://www.w3.org/2000/svg"><path d="m106.986 40.073-27.447-27.446a1 1 0 0 0 -.707-.293h-51.166a3 3 0 0 0 -3 3v101.333a3 3 0 0 0 3 3h76.667a3 3 0 0 0 3-3v-75.836a1 1 0 0 0 -.347-.758z" fill="#e6e7e8"/><path d="m102.331 36.833-27.5-27.5h-51.164a2 2 0 0 0 -2 2v101.334a2 2 0 0 0 2 2h76.666a2 2 0 0 0 2-2v-75.836z" fill="#d4fbff"/><path d="m54.388 79.191a2.262 2.262 0 0 1 0 3.12 2.315 2.315 0 0 1 -1.56.534h-3.342a5.345 5.345 0 0 1 -3.986-1.426 5.41 5.41 0 0 1 -1.4-3.966v-8.645a4.245 4.245 0 0 0 -.623-2.585 3.011 3.011 0 0 0 -2.229-.936 2.061 2.061 0 0 1 -2.148-2.187 2.1 2.1 0 0 1 .557-1.515 2.237 2.237 0 0 1 1.582-.624 3.011 3.011 0 0 0 2.229-.936 4.243 4.243 0 0 0 .623-2.585v-8.64a5.41 5.41 0 0 1 1.4-3.966 5.345 5.345 0 0 1 3.989-1.426h3.342a2.315 2.315 0 0 1 1.56.534 2.262 2.262 0 0 1 0 3.12 2.311 2.311 0 0 1 -1.56.535h-1.422a1.907 1.907 0 0 0 -1.4.468 2.044 2.044 0 0 0 -.468 1.493v8.556a5.35 5.35 0 0 1 -1.047 3.365 4.254 4.254 0 0 1 -2.473 1.671 4.28 4.28 0 0 1 2.471 1.65 5.254 5.254 0 0 1 1.047 3.342v8.556a2.044 2.044 0 0 0 .47 1.49 1.907 1.907 0 0 0 1.4.468h1.426a2.311 2.311 0 0 1 1.562.535z" fill="#fa759e"/><path d="m82.44 61.588a2.1 2.1 0 0 1 .56 1.512 2.231 2.231 0 0 1 -.535 1.538 2.164 2.164 0 0 1 -1.6.646 3.008 3.008 0 0 0 -2.228.936 4.238 4.238 0 0 0 -.624 2.585v8.645a5.41 5.41 0 0 1 -1.4 3.966 5.345 5.345 0 0 1 -3.988 1.426h-3.354a2.311 2.311 0 0 1 -1.559-.534 2.262 2.262 0 0 1 0-3.12 2.306 2.306 0 0 1 1.559-.535h1.429a1.91 1.91 0 0 0 1.4-.468 2.044 2.044 0 0 0 .467-1.493v-8.553a5.248 5.248 0 0 1 1.05-3.339 4.274 4.274 0 0 1 2.473-1.649 4.248 4.248 0 0 1 -2.473-1.671 5.345 5.345 0 0 1 -1.048-3.365v-8.559a2.044 2.044 0 0 0 -.467-1.493 1.91 1.91 0 0 0 -1.4-.468h-1.431a2.306 2.306 0 0 1 -1.559-.535 2.262 2.262 0 0 1 0-3.12 2.311 2.311 0 0 1 1.559-.534h3.343a5.345 5.345 0 0 1 3.986 1.426 5.41 5.41 0 0 1 1.4 3.966v8.645a4.236 4.236 0 0 0 .624 2.585 3.008 3.008 0 0 0 2.228.936 2.239 2.239 0 0 1 1.588.624z" fill="#fa759e"/><path d="m21.667 91v21.667a2 2 0 0 0 2 2h76.666a2 2 0 0 0 2-2v-21.667z" fill="#6dc9f7"/><path d="m23.667 12.333h54.165l-3-3h-51.165a2 2 0 0 0 -2 2v3a2 2 0 0 1 2-2z" fill="#fff"/><path d="m74.834 9.333v25.5a2 2 0 0 0 2 2h25.5z" fill="#6dc9f7"/><g fill="#3a2c60"><path d="m49.275 62.087a6.347 6.347 0 0 0 1.255-3.975v-8.556c0-.567.134-.745.175-.786a1.041 1.041 0 0 1 .7-.175h1.426a3.3 3.3 0 0 0 2.211-.776 3.25 3.25 0 0 0 0-4.638 3.3 3.3 0 0 0 -2.211-.775h-3.345a6.324 6.324 0 0 0 -4.7 1.725 6.393 6.393 0 0 0 -1.693 4.669v8.645a3.264 3.264 0 0 1 -.412 1.971 2.134 2.134 0 0 1 -1.483.551 3.206 3.206 0 0 0 -2.26.93 3.069 3.069 0 0 0 -.838 2.203 3.053 3.053 0 0 0 3.056 3.181 2.175 2.175 0 0 1 1.522.552 3.26 3.26 0 0 1 .413 1.972v8.645a6.392 6.392 0 0 0 1.692 4.668 6.325 6.325 0 0 0 4.7 1.724h3.342a3.3 3.3 0 0 0 2.211-.775 3.25 3.25 0 0 0 0-4.638 3.3 3.3 0 0 0 -2.211-.776h-1.425a1.041 1.041 0 0 1 -.7-.175c-.041-.041-.175-.219-.175-.786v-8.553a6.254 6.254 0 0 0 -1.26-3.959 6.178 6.178 0 0 0 -1.018-1.036 6.166 6.166 0 0 0 1.028-1.057zm-.745-3.975a4.335 4.335 0 0 1 -.84 2.754 3.251 3.251 0 0 1 -1.894 1.3 1 1 0 0 0 0 1.954 3.287 3.287 0 0 1 1.9 1.289 4.252 4.252 0 0 1 .834 2.725v8.556a2.99 2.99 0 0 0 .761 2.2 2.865 2.865 0 0 0 2.111.761h1.426a1.318 1.318 0 0 1 .909.294 1.3 1.3 0 0 1 0 1.6 1.318 1.318 0 0 1 -.909.294h-3.342a4.362 4.362 0 0 1 -3.276-1.127 4.427 4.427 0 0 1 -1.117-3.265v-8.639a5.115 5.115 0 0 0 -.834-3.2 3.986 3.986 0 0 0 -2.975-1.32 1.075 1.075 0 0 1 -1.184-1.188 1.085 1.085 0 0 1 .278-.822 1.328 1.328 0 0 1 .944-.32 3.953 3.953 0 0 0 2.935-1.319 5.112 5.112 0 0 0 .834-3.2v-8.639a4.423 4.423 0 0 1 1.117-3.264 4.361 4.361 0 0 1 3.276-1.128h3.342a1.318 1.318 0 0 1 .909.294 1.3 1.3 0 0 1 0 1.6 1.323 1.323 0 0 1 -.909.294h-1.426a2.872 2.872 0 0 0 -2.111.76 2.994 2.994 0 0 0 -.761 2.2z"/><path d="m72.83 64.18a6.251 6.251 0 0 0 -1.261 3.959v8.556c0 .567-.133.745-.174.786a1.043 1.043 0 0 1 -.7.175h-1.423a3.292 3.292 0 0 0 -2.21.775 3.249 3.249 0 0 0 0 4.638 3.292 3.292 0 0 0 2.211.776h3.342a6.327 6.327 0 0 0 4.7-1.724 6.391 6.391 0 0 0 1.691-4.668v-8.645a3.259 3.259 0 0 1 .413-1.971 2.128 2.128 0 0 1 1.48-.551 3.123 3.123 0 0 0 2.311-.981 3.209 3.209 0 0 0 .79-2.205 3.076 3.076 0 0 0 -.836-2.208 3.17 3.17 0 0 0 -2.219-.926 2.177 2.177 0 0 1 -1.522-.554 3.259 3.259 0 0 1 -.413-1.971v-8.641a6.393 6.393 0 0 0 -1.691-4.668 6.325 6.325 0 0 0 -4.7-1.724h-3.347a3.287 3.287 0 0 0 -2.21.775 3.249 3.249 0 0 0 0 4.638 3.292 3.292 0 0 0 2.211.776h1.427a1.049 1.049 0 0 1 .7.174c.041.042.174.22.174.787v8.556a6.342 6.342 0 0 0 1.255 3.974 6.211 6.211 0 0 0 1.023 1.058 6.173 6.173 0 0 0 -1.022 1.034zm.739 3.959a4.248 4.248 0 0 1 .835-2.726 3.287 3.287 0 0 1 1.9-1.288 1 1 0 0 0 0-1.954 3.254 3.254 0 0 1 -1.894-1.3 4.337 4.337 0 0 1 -.84-2.754v-8.561a2.99 2.99 0 0 0 -.761-2.2 2.868 2.868 0 0 0 -2.11-.76h-1.427a1.321 1.321 0 0 1 -.91-.3 1.3 1.3 0 0 1 0-1.6 1.321 1.321 0 0 1 .909-.293h3.342a4.366 4.366 0 0 1 3.276 1.127 4.426 4.426 0 0 1 1.117 3.27v8.645a5.107 5.107 0 0 0 .835 3.2 3.984 3.984 0 0 0 2.974 1.32 1.29 1.29 0 0 1 .906.319 1.09 1.09 0 0 1 .279.816 1.211 1.211 0 0 1 -.282.873 1.3 1.3 0 0 1 -.941.314 3.954 3.954 0 0 0 -2.934 1.318 5.1 5.1 0 0 0 -.835 3.2v8.645a4.426 4.426 0 0 1 -1.116 3.265 4.362 4.362 0 0 1 -3.276 1.127h-3.344a1.32 1.32 0 0 1 -.91-.294 1.3 1.3 0 0 1 0-1.6 1.316 1.316 0 0 1 .909-.294h1.429a2.865 2.865 0 0 0 2.111-.761 2.99 2.99 0 0 0 .76-2.2z"/><path d="m53.315 98.789a3.825 3.825 0 0 1 1.23.187 4.424 4.424 0 0 1 1.2.668 1.109 1.109 0 0 0 .615.21.542.542 0 0 0 .435-.226.858.858 0 0 0 .18-.555.98.98 0 0 0 -.075-.4.866.866 0 0 0 -.27-.314 4.815 4.815 0 0 0 -1.545-.848 5.8 5.8 0 0 0 -1.86-.293 5.274 5.274 0 0 0 -2.677.661 4.391 4.391 0 0 0 -1.763 1.882 7.032 7.032 0 0 0 0 5.752 4.372 4.372 0 0 0 1.763 1.89 5.274 5.274 0 0 0 2.677.66 5.8 5.8 0 0 0 1.86-.292 4.815 4.815 0 0 0 1.545-.848.839.839 0 0 0 .27-.322.991.991 0 0 0 .075-.4.857.857 0 0 0 -.18-.554.539.539 0 0 0 -.435-.226.841.841 0 0 0 -.315.061 2.09 2.09 0 0 0 -.3.149 5.706 5.706 0 0 1 -1.237.661 3.562 3.562 0 0 1 -1.193.194 2.882 2.882 0 0 1 -2.363-.975 5.545 5.545 0 0 1 0-5.745 2.884 2.884 0 0 1 2.363-.977z"/><path d="m64.543 102.546a12.094 12.094 0 0 0 -2.168-.668 6.123 6.123 0 0 1 -1.785-.615 1.052 1.052 0 0 1 -.525-.945 1.321 1.321 0 0 1 .592-1.147 2.782 2.782 0 0 1 1.613-.413 4.049 4.049 0 0 1 1.418.218 5.053 5.053 0 0 1 1.192.668 2.2 2.2 0 0 0 .338.164.821.821 0 0 0 .277.046.557.557 0 0 0 .443-.233.847.847 0 0 0 .187-.548.865.865 0 0 0 -.082-.4 1.115 1.115 0 0 0 -.278-.322 5.227 5.227 0 0 0 -3.495-1.141 5.175 5.175 0 0 0 -2.107.413 3.467 3.467 0 0 0 -1.463 1.15 2.8 2.8 0 0 0 -.525 1.666 2.48 2.48 0 0 0 .42 1.484 3.02 3.02 0 0 0 1.245.96 10.73 10.73 0 0 0 2.145.66 7.251 7.251 0 0 1 1.823.593.96.96 0 0 1 .547.877 1.253 1.253 0 0 1 -.585 1.118 3.072 3.072 0 0 1 -1.68.382 5.451 5.451 0 0 1 -1.56-.21 4.452 4.452 0 0 1 -1.35-.675 1.219 1.219 0 0 0 -.615-.21.555.555 0 0 0 -.442.233.91.91 0 0 0 .157 1.267 4.79 4.79 0 0 0 1.673.833 7.566 7.566 0 0 0 2.182.307 5.475 5.475 0 0 0 2.153-.4 3.379 3.379 0 0 0 1.455-1.11 2.723 2.723 0 0 0 .517-1.643 2.254 2.254 0 0 0 -.442-1.425 3.223 3.223 0 0 0 -1.275-.934z"/><path d="m74.113 102.546a12.12 12.12 0 0 0 -2.168-.668 6.123 6.123 0 0 1 -1.785-.615 1.052 1.052 0 0 1 -.525-.945 1.321 1.321 0 0 1 .592-1.147 2.782 2.782 0 0 1 1.613-.413 4.049 4.049 0 0 1 1.418.218 5.053 5.053 0 0 1 1.192.668 2.2 2.2 0 0 0 .337.164.831.831 0 0 0 .278.046.557.557 0 0 0 .443-.233.847.847 0 0 0 .187-.548.865.865 0 0 0 -.082-.4 1.131 1.131 0 0 0 -.278-.322 5.227 5.227 0 0 0 -3.495-1.141 5.175 5.175 0 0 0 -2.107.413 3.467 3.467 0 0 0 -1.463 1.147 2.8 2.8 0 0 0 -.525 1.666 2.48 2.48 0 0 0 .42 1.484 3.02 3.02 0 0 0 1.245.96 10.73 10.73 0 0 0 2.145.66 7.266 7.266 0 0 1 1.823.593.962.962 0 0 1 .547.877 1.253 1.253 0 0 1 -.585 1.118 3.072 3.072 0 0 1 -1.68.382 5.451 5.451 0 0 1 -1.56-.21 4.452 4.452 0 0 1 -1.35-.675 1.219 1.219 0 0 0 -.615-.21.555.555 0 0 0 -.442.233.91.91 0 0 0 .157 1.267 4.79 4.79 0 0 0 1.673.833 7.566 7.566 0 0 0 2.182.307 5.475 5.475 0 0 0 2.153-.4 3.379 3.379 0 0 0 1.455-1.11 2.73 2.73 0 0 0 .517-1.643 2.254 2.254 0 0 0 -.443-1.425 3.212 3.212 0 0 0 -1.274-.931z"/><path d="m103 36.085-27.461-27.459a1 1 0 0 0 -.707-.293h-51.165a3 3 0 0 0 -3 3v9.067a1 1 0 0 0 2 0v-9.07a1 1 0 0 1 1-1h50.165v24.5a3 3 0 0 0 3 3h24.5v52.17h-78.665v-51.43a1 1 0 0 0 -2 0v74.1a3 3 0 0 0 3 3h76.667a3 3 0 0 0 3-3v-75.839a1 1 0 0 0 -.334-.746zm-27.168-1.252v-23.085l24.086 24.085h-23.086a1 1 0 0 1 -1-1zm24.5 78.833h-76.665a1 1 0 0 1 -1-1v-20.666h78.667v20.666a1 1 0 0 1 -1 1z"/><path d="m21.667 35.4a1 1 0 0 0 1-1v-9.5a1 1 0 0 0 -2 0v9.5a1 1 0 0 0 1 1z"/></g></svg>