<svg height="512" viewBox="0 0 128 128" width="512" xmlns="http://www.w3.org/2000/svg"><path d="m113.223 39.627-26.8-26.795a1 1 0 0 0 -.707-.293h-49.904a3 3 0 0 0 -3 3v7.049h-9.381a5.006 5.006 0 0 0 -5 5v10.787a4.978 4.978 0 0 0 2.031 4 4.981 4.981 0 0 0 -2.031 4v10.788a4.983 4.983 0 0 0 2.03 4 4.98 4.98 0 0 0 -2.03 4v10.787a5.006 5.006 0 0 0 5 5h9.381v35.511a3 3 0 0 0 3 3h74.758a3 3 0 0 0 3-3v-76.076a1 1 0 0 0 -.347-.758z" fill="#e6e7e8"/><path d="m108.568 36.387-26.848-26.848h-49.908a2 2 0 0 0 -2 2v8.049h25.258a4 4 0 0 1 4 4v10.787a4 4 0 0 1 -4 4 4 4 0 0 1 4 4v10.788a4 4 0 0 1 -4 4 4 4 0 0 1 4 4v10.787a4 4 0 0 1 -4 4h-25.258v36.511a2 2 0 0 0 2 2h74.758a2 2 0 0 0 2-2v-76.075z" fill="#fa759e"/><path d="m81.72 9.541h-49.908a2 2 0 0 0 -2 2v3a2 2 0 0 1 2-2h49.908z" fill="#fff"/><path d="m81.722 9.539v24.848a2 2 0 0 0 2 2h24.85z" fill="#ffd7e5"/><rect fill="#d4fbff" height="18.787" rx="4" width="43.64" x="15.43" y="19.588"/><rect fill="#6dc9f7" height="18.787" rx="4" width="43.64" x="15.43" y="38.375"/><rect fill="#0089ef" height="18.787" rx="4" width="43.64" x="15.43" y="57.163"/><path d="m60.942 99.8v.047a2.754 2.754 0 0 1 -3.849 2.527l-15.521-6.723a3.955 3.955 0 0 1 -2.381-3.627v-.042a3.954 3.954 0 0 1 2.381-3.627l15.521-6.727a2.754 2.754 0 0 1 3.849 2.528v.075a2.754 2.754 0 0 1 -1.764 2.57l-13.392 5.159 13.414 5.28a2.753 2.753 0 0 1 1.742 2.56z" fill="#fff"/><path d="m73.206 75.415a2.56 2.56 0 0 0 -3.09 1.886l-6.825 28.2a2.562 2.562 0 0 0 1.886 3.089 2.59 2.59 0 0 0 .6.072 2.549 2.549 0 0 0 2.485-1.958l6.825-28.2a2.562 2.562 0 0 0 -1.881-3.089z" fill="#fff"/><path d="m96.817 95.6-15.523 6.758a2.754 2.754 0 0 1 -3.854-2.525v-.038a2.755 2.755 0 0 1 1.748-2.564l13.453-5.282-13.44-5.2a2.756 2.756 0 0 1 -1.761-2.569 2.754 2.754 0 0 1 3.846-2.529l15.518 6.7a3.951 3.951 0 0 1 2.387 3.629 3.952 3.952 0 0 1 -2.374 3.62z" fill="#fff"/><g fill="#3a2c60"><path d="m108.57 61a1 1 0 0 0 -1 1v8.832a1 1 0 0 0 2 0v-8.832a1 1 0 0 0 -1-1z"/><path d="m109.235 35.64-26.808-26.808a1 1 0 0 0 -.707-.293h-49.907a3 3 0 0 0 -3 3v7.049h-9.383a5.006 5.006 0 0 0 -5 5v10.787a4.97 4.97 0 0 0 2.033 4 4.983 4.983 0 0 0 -2.033 4v10.788a4.981 4.981 0 0 0 2.033 4 4.97 4.97 0 0 0 -2.033 4v10.787a5.006 5.006 0 0 0 5 5h9.383v35.511a3 3 0 0 0 3 3h74.757a3 3 0 0 0 3-3v-36.511a1 1 0 1 0 -2 0v36.511a1 1 0 0 1 -1 1h-74.757a1 1 0 0 1 -1-1v-35.511h24.257a5.006 5.006 0 0 0 5-5v-10.787a4.968 4.968 0 0 0 -2.033-4 4.981 4.981 0 0 0 2.033-4v-10.788a4.981 4.981 0 0 0 -2.033-4 4.97 4.97 0 0 0 2.033-4v-10.787a5.006 5.006 0 0 0 -5-5h-24.257v-7.049a1 1 0 0 1 1-1h48.907v23.849a3 3 0 0 0 3 3h23.85v19.775a1 1 0 1 0 2 0v-20.777a1 1 0 0 0 -.335-.746zm-51.165 25.523v10.787a3 3 0 0 1 -3 3h-35.64a3 3 0 0 1 -3-3v-10.787a3 3 0 0 1 3-3h35.64a3 3 0 0 1 3 3zm0-8a3 3 0 0 1 -3 3h-35.64a3 3 0 0 1 -3-3v-10.788a3 3 0 0 1 3-3h35.64a3 3 0 0 1 3 3zm0-29.575v10.787a3 3 0 0 1 -3 3h-35.64a3 3 0 0 1 -3-3v-10.787a3 3 0 0 1 3-3h35.64a3 3 0 0 1 3 3zm24.65 10.8v-22.435l23.434 23.435h-22.434a1 1 0 0 1 -1-1z"/><path d="m23.314 32.652a.671.671 0 0 0 .506-.2.7.7 0 0 0 .191-.512v-2.684h3.93v2.688a.713.713 0 0 0 .185.512.729.729 0 0 0 .995 0 .7.7 0 0 0 .192-.512v-6.389a.7.7 0 0 0 -.186-.507.751.751 0 0 0 -1 0 .694.694 0 0 0 -.185.507v2.568h-3.93v-2.568a.657.657 0 0 0 -.7-.7.665.665 0 0 0 -.5.191.7.7 0 0 0 -.186.507v6.389a.707.707 0 0 0 .19.512.659.659 0 0 0 .498.198z"/><path d="m30.793 26.066h1.982v5.878a.683.683 0 0 0 .19.506.694.694 0 0 0 .517.191.657.657 0 0 0 .7-.7v-5.875h1.98q.654 0 .654-.577t-.654-.577h-5.369q-.652 0-.653.577t.653.577z"/><path d="m38.272 32.652a.593.593 0 0 0 .451-.179.671.671 0 0 0 .169-.473v-4.432l1.861 3.451a1 1 0 0 0 .283.359.6.6 0 0 0 .36.109.585.585 0 0 0 .359-.114 1.083 1.083 0 0 0 .283-.354l1.851-3.5v4.481a.669.669 0 0 0 .163.478.579.579 0 0 0 .446.175.614.614 0 0 0 .457-.175.645.645 0 0 0 .174-.478v-6.445a.694.694 0 0 0 -.185-.507.652.652 0 0 0 -.49-.191.72.72 0 0 0 -.641.469l-2.407 4.605-2.417-4.605a.732.732 0 0 0 -.664-.469.634.634 0 0 0 -.484.191.712.712 0 0 0 -.18.507v6.445a.67.67 0 0 0 .164.478.579.579 0 0 0 .447.174z"/><path d="m47.458 32.587h3.8q.652 0 .652-.577t-.652-.578h-3.058v-5.877a.685.685 0 0 0 -.19-.507.7.7 0 0 0 -.517-.191.657.657 0 0 0 -.7.7v6.378a.645.645 0 0 0 .175.479.66.66 0 0 0 .49.173z"/><path d="m24.163 43.645a.655.655 0 0 0 -.7.7v4.865a1.177 1.177 0 0 1 -.23.8.908.908 0 0 1 -.674.283l-.348.021a.665.665 0 0 0 -.431.159.535.535 0 0 0 -.135.4q0 .609.837.577l.349-.022a1.967 1.967 0 0 0 2.036-2.21v-4.875a.686.686 0 0 0 -.191-.507.7.7 0 0 0 -.513-.191z"/><path d="m30.929 47.472a8.742 8.742 0 0 0 -1.573-.485 4.452 4.452 0 0 1 -1.3-.446.763.763 0 0 1 -.381-.686.958.958 0 0 1 .43-.833 2.02 2.02 0 0 1 1.169-.3 2.944 2.944 0 0 1 1.03.157 3.708 3.708 0 0 1 .865.484 1.511 1.511 0 0 0 .245.12.6.6 0 0 0 .2.033.4.4 0 0 0 .322-.169.616.616 0 0 0 .135-.4.622.622 0 0 0 -.059-.289.841.841 0 0 0 -.2-.233 4.212 4.212 0 0 0 -4.062-.525 2.521 2.521 0 0 0 -1.061.833 2.03 2.03 0 0 0 -.381 1.208 1.8 1.8 0 0 0 .3 1.078 2.192 2.192 0 0 0 .905.7 7.852 7.852 0 0 0 1.556.479 5.26 5.26 0 0 1 1.323.43.7.7 0 0 1 .4.637.907.907 0 0 1 -.425.811 2.227 2.227 0 0 1 -1.218.277 3.946 3.946 0 0 1 -1.133-.152 3.264 3.264 0 0 1 -.98-.49.878.878 0 0 0 -.446-.152.4.4 0 0 0 -.321.168.662.662 0 0 0 .114.92 3.511 3.511 0 0 0 1.214.6 5.523 5.523 0 0 0 1.584.223 3.978 3.978 0 0 0 1.562-.289 2.444 2.444 0 0 0 1.056-.8 1.98 1.98 0 0 0 .376-1.193 1.646 1.646 0 0 0 -.321-1.034 2.349 2.349 0 0 0 -.925-.682z"/><path d="m24.114 69.781a3.836 3.836 0 0 0 1.944.479 4.222 4.222 0 0 0 1.349-.212 3.5 3.5 0 0 0 1.121-.616.615.615 0 0 0 .2-.234.722.722 0 0 0 .053-.288.63.63 0 0 0 -.129-.4.394.394 0 0 0 -.317-.163.586.586 0 0 0 -.228.044 1.521 1.521 0 0 0 -.218.108 4.093 4.093 0 0 1 -.9.479 2.571 2.571 0 0 1 -.866.142 2.09 2.09 0 0 1 -1.714-.708 4.018 4.018 0 0 1 0-4.169 2.09 2.09 0 0 1 1.714-.708 2.809 2.809 0 0 1 .894.136 3.286 3.286 0 0 1 .87.484.8.8 0 0 0 .446.154.394.394 0 0 0 .317-.165.627.627 0 0 0 .129-.4.716.716 0 0 0 -.053-.294.631.631 0 0 0 -.2-.228 3.5 3.5 0 0 0 -1.121-.616 4.222 4.222 0 0 0 -1.349-.211 3.835 3.835 0 0 0 -1.944.478 3.189 3.189 0 0 0 -1.279 1.366 5.108 5.108 0 0 0 0 4.175 3.188 3.188 0 0 0 1.281 1.367z"/><path d="m30.94 70.037a5.523 5.523 0 0 0 1.584.223 4 4 0 0 0 1.562-.288 2.453 2.453 0 0 0 1.056-.806 1.979 1.979 0 0 0 .376-1.192 1.641 1.641 0 0 0 -.322-1.035 2.338 2.338 0 0 0 -.925-.68 8.756 8.756 0 0 0 -1.574-.485 4.433 4.433 0 0 1 -1.3-.446.764.764 0 0 1 -.38-.686.96.96 0 0 1 .429-.833 2.023 2.023 0 0 1 1.17-.3 2.948 2.948 0 0 1 1.03.157 3.708 3.708 0 0 1 .865.484 1.435 1.435 0 0 0 .245.12.593.593 0 0 0 .2.034.4.4 0 0 0 .321-.169.616.616 0 0 0 .136-.4.622.622 0 0 0 -.059-.289.847.847 0 0 0 -.2-.233 4.218 4.218 0 0 0 -4.066-.529 2.532 2.532 0 0 0 -1.062.833 2.036 2.036 0 0 0 -.38 1.208 1.8 1.8 0 0 0 .3 1.078 2.185 2.185 0 0 0 .905.7 7.786 7.786 0 0 0 1.556.479 5.291 5.291 0 0 1 1.322.43.7.7 0 0 1 .4.637.91.91 0 0 1 -.425.811 2.228 2.228 0 0 1 -1.219.278 3.938 3.938 0 0 1 -1.132-.153 3.241 3.241 0 0 1 -.98-.49.878.878 0 0 0 -.446-.152.4.4 0 0 0 -.322.169.662.662 0 0 0 .115.919 3.493 3.493 0 0 0 1.22.606z"/><path d="m37.885 70.037a5.523 5.523 0 0 0 1.584.223 4 4 0 0 0 1.562-.288 2.447 2.447 0 0 0 1.056-.806 1.979 1.979 0 0 0 .376-1.192 1.64 1.64 0 0 0 -.321-1.035 2.349 2.349 0 0 0 -.926-.68 8.742 8.742 0 0 0 -1.573-.485 4.422 4.422 0 0 1 -1.3-.446.763.763 0 0 1 -.381-.686.961.961 0 0 1 .43-.833 2.021 2.021 0 0 1 1.17-.3 2.938 2.938 0 0 1 1.029.157 3.708 3.708 0 0 1 .865.484 1.511 1.511 0 0 0 .245.12.6.6 0 0 0 .2.034.407.407 0 0 0 .322-.169.685.685 0 0 0 .076-.687.841.841 0 0 0 -.2-.233 4.22 4.22 0 0 0 -4.067-.529 2.529 2.529 0 0 0 -1.061.833 2.03 2.03 0 0 0 -.381 1.208 1.8 1.8 0 0 0 .3 1.078 2.182 2.182 0 0 0 .9.7 7.786 7.786 0 0 0 1.556.479 5.3 5.3 0 0 1 1.323.43.7.7 0 0 1 .4.637.907.907 0 0 1 -.425.811 2.227 2.227 0 0 1 -1.218.278 3.95 3.95 0 0 1 -1.133-.153 3.241 3.241 0 0 1 -.98-.49.878.878 0 0 0 -.446-.152.4.4 0 0 0 -.321.169.661.661 0 0 0 .114.919 3.5 3.5 0 0 0 1.225.604z"/><path d="m61.943 84.156a3.755 3.755 0 0 0 -5.243-3.445l-15.52 6.727a4.984 4.984 0 0 0 0 9.13l15.52 6.732a3.755 3.755 0 0 0 5.248-3.445v-.055a3.735 3.735 0 0 0 -2.38-3.494l-11.026-4.336 10.995-4.236a3.8 3.8 0 0 0 2.406-3.578zm-3.125 1.712-13.391 5.159a1 1 0 0 0 -.007 1.864l13.41 5.279a1.745 1.745 0 0 1 1.113 1.63v.047a1.755 1.755 0 0 1 -2.453 1.61l-15.52-6.724a2.985 2.985 0 0 1 0-5.46l15.52-6.727a1.769 1.769 0 0 1 .7-.149 1.732 1.732 0 0 1 .958.292 1.815 1.815 0 0 1 -.333 3.179z"/><path d="m73.443 74.444a3.558 3.558 0 0 0 -4.3 2.622l-6.826 28.2a3.559 3.559 0 1 0 6.919 1.675l6.825-28.2a3.561 3.561 0 0 0 -2.62-4.3zm.676 3.825-6.819 28.201a1.584 1.584 0 0 1 -1.883 1.15 1.562 1.562 0 0 1 -1.149-1.882l6.825-28.2a1.558 1.558 0 0 1 1.882-1.149 1.561 1.561 0 0 1 1.148 1.882z"/><path d="m76.441 99.829a3.75 3.75 0 0 0 5.252 3.442l15.523-6.758a4.952 4.952 0 0 0 -.015-9.088l-15.519-6.695a3.754 3.754 0 1 0 -2.842 6.948l11.047 4.275-11.066 4.347a3.747 3.747 0 0 0 -2.38 3.529zm3.112-1.671 13.453-5.282a1 1 0 0 0 0-1.863l-13.44-5.2a1.764 1.764 0 0 1 -1.121-1.636 1.763 1.763 0 0 1 1.749-1.758 1.769 1.769 0 0 1 .7.147l15.519 6.695a2.952 2.952 0 0 1 .009 5.418l-15.522 6.758a1.772 1.772 0 1 1 -1.342-3.279z"/></g></svg>