<svg height="512" viewBox="0 0 128 128" width="512" xmlns="http://www.w3.org/2000/svg"><path d="m110.738 26.087a3 3 0 0 0 -2.239-1h-12.332v-12.71a3 3 0 0 0 -3-3h-54.334a3 3 0 0 0 -3 3v12.707h-12.333a3 3 0 0 0 -2.98 3.341l9.339 81.263a3 3 0 0 0 2.093 2.523l33.16 10.276a2.985 2.985 0 0 0 1.775 0l33.159-10.276a3 3 0 0 0 2.093-2.523l9.34-81.264a3 3 0 0 0 -.741-2.337z" fill="#e6e7e8"/><path d="m17.514 24.312 9.34 81.263a2 2 0 0 0 1.395 1.682l33.159 10.276a2.008 2.008 0 0 0 1.184 0l33.159-10.276a2 2 0 0 0 1.395-1.682l9.34-81.263a2 2 0 0 0 -1.987-2.228h-85a2 2 0 0 0 -1.985 2.228z" fill="#fa759e"/><path d="m96.889 103.518-34.277 10.622a2.06 2.06 0 0 1 -1.224 0l-34.277-10.622a2.044 2.044 0 0 1 -.522-.25l.265 2.307a2 2 0 0 0 1.395 1.682l33.159 10.276a2.008 2.008 0 0 0 1.184 0l33.159-10.276a2 2 0 0 0 1.395-1.682l.265-2.307a2.028 2.028 0 0 1 -.522.25z" fill="#fff"/><path d="m97.12 29.616h-35.12v80.474l27.905-8.647a2 2 0 0 0 1.395-1.682l7.807-67.916a2 2 0 0 0 -1.987-2.229z" fill="#ffd7e5"/><path d="m88.734 41.256h-53.468l3.444 29.959h37.199l-1.407 12.229-12.502 3.874-12.502-3.874-.735-6.391h-9.382l1.719 14.964 20.9 6.476 20.9-6.476 3.688-32.088h-39.793l-.872-7.584 41.537-.003z" fill="#fff"/><rect fill="#6dc9f7" height="19.667" rx="2" width="58.333" x="32.833" y="6.377"/><g fill="#3a2c60"><path d="m106.739 22.087a3.005 3.005 0 0 0 -2.24-1h-12.332v-12.71a3 3 0 0 0 -3-3h-54.334a3 3 0 0 0 -3 3v12.706h-12.333a3 3 0 0 0 -2.981 3.343l2.058 17.9a1 1 0 0 0 1.986-.228l-2.056-17.898a1 1 0 0 1 .994-1.115h12.332v.961a3 3 0 0 0 3 3h54.334a3 3 0 0 0 3-3v-.961h12.333a1 1 0 0 1 .994 1.114l-9.34 81.263a1 1 0 0 1 -.7.842l-33.154 10.274a1.015 1.015 0 0 1 -.593 0l-33.161-10.278a1 1 0 0 1 -.7-.842l-5.3-46.081a1 1 0 1 0 -1.987.229l5.3 46.08a3 3 0 0 0 2.092 2.524l33.16 10.276a2.985 2.985 0 0 0 1.775 0l33.16-10.276a3 3 0 0 0 2.092-2.523l9.339-81.263a3 3 0 0 0 -.738-2.337zm-16.572 1.957a1 1 0 0 1 -1 1h-54.334a1 1 0 0 1 -1-1v-15.667a1 1 0 0 1 1-1h54.334a1 1 0 0 1 1 1z"/><path d="m21.235 56.684a1 1 0 0 0 .879-1.108l-1.022-8.894a1 1 0 0 0 -1.987.228l1.023 8.9a1 1 0 0 0 .992.886.9.9 0 0 0 .115-.012z"/><path d="m88.453 52.456 1.274-11.086a.988.988 0 0 0 -.247-.779 1 1 0 0 0 -.746-.335h-53.467a1 1 0 0 0 -.994 1.114l3.444 29.959a1 1 0 0 0 .993.886h36.077l-1.2 10.467-11.587 3.589-11.583-3.589-.661-5.743a1 1 0 0 0 -.993-.886h-9.382a1 1 0 0 0 -.746.335.988.988 0 0 0 -.247.779l1.719 14.964a1 1 0 0 0 .7.841l20.9 6.476a1 1 0 0 0 .592 0l20.9-6.476a1 1 0 0 0 .7-.841l3.689-32.088a1 1 0 0 0 -.993-1.114h-38.9l-.642-5.584h40.416a1 1 0 0 0 .984-.889zm-42.53-1.111a1 1 0 0 0 -.746.335.988.988 0 0 0 -.247.779l.872 7.584a1 1 0 0 0 .993.886h38.672l-3.487 30.326-19.98 6.191-19.981-6.191-1.519-13.202h7.369l.634 5.505a1 1 0 0 0 .7.841l12.5 3.874a1 1 0 0 0 .592 0l12.505-3.873a1 1 0 0 0 .7-.841l1.4-12.23a1 1 0 0 0 -.993-1.114h-36.307l-3.212-27.959h51.225l-1.045 9.086z"/><path d="m50.707 11.487a.858.858 0 0 0 -.644.245.9.9 0 0 0 -.237.652v3.3h-5.055v-3.3a.843.843 0 0 0 -.9-.9.858.858 0 0 0 -.644.245.9.9 0 0 0 -.237.652v8.219a.907.907 0 0 0 .244.659.85.85 0 0 0 .637.252.865.865 0 0 0 .651-.252.907.907 0 0 0 .245-.659v-3.457h5.055v3.457a.923.923 0 0 0 .237.659.94.94 0 0 0 1.281 0 .907.907 0 0 0 .245-.659v-8.216a.894.894 0 0 0 -.238-.652.856.856 0 0 0 -.64-.245z"/><path d="m60.4 11.557h-6.9q-.84 0-.84.743t.84.741h2.54v7.559a.881.881 0 0 0 .246.652.9.9 0 0 0 .665.244.841.841 0 0 0 .9-.9v-7.56h2.549q.84 0 .84-.741t-.84-.738z"/><path d="m71.063 11.487a.925.925 0 0 0 -.826.6l-3.094 5.922-3.108-5.919a.943.943 0 0 0 -.854-.6.814.814 0 0 0 -.623.245.912.912 0 0 0 -.231.652v8.288a.862.862 0 0 0 .21.615.75.75 0 0 0 .574.225.761.761 0 0 0 .581-.232.852.852 0 0 0 .217-.608v-5.7l2.391 4.436a1.277 1.277 0 0 0 .363.462.774.774 0 0 0 .462.141.745.745 0 0 0 .463-.148 1.392 1.392 0 0 0 .364-.455l2.382-4.511v5.769a.867.867 0 0 0 .21.615.754.754 0 0 0 .575.225.794.794 0 0 0 .587-.225.828.828 0 0 0 .225-.615v-8.285a.9.9 0 0 0 -.238-.652.841.841 0 0 0 -.63-.245z"/><path d="m79.813 19.943h-3.934v-7.559a.883.883 0 0 0 -.245-.652.9.9 0 0 0 -.665-.245.841.841 0 0 0 -.895.9v8.2a.831.831 0 0 0 .223.615.856.856 0 0 0 .63.225h4.886q.84 0 .84-.743t-.84-.741z"/></g></svg>